<?xml version="1.0" encoding="utf-8" ?>	<!-- Generator: Assembly 2.2 - http://assemblyapp.co -->	<svg version="1.1" xmlns="http://www.w3.org/2000/svg" xmlns:xlink="http://www.w3.org/1999/xlink" width="2048.00" height="1365.33" viewBox="0 0 2048.0 1365.3333333333335">		<g id="document" transform="matrix(1,0,0,1,1024.0,682.6666666666667)">			<path d="M-18.9119,-589.092 L-18.9119,-589.092 C-166.02,-589.092 -326.39,-575.435 -490.941,-536.187 C-655.492,-496.939 -919.062,-521.499 -919.062,-374.392 C-919.062,-80.1766 -576.957,-55.2571 -282.742,-55.2571 L329.711,77.8577 C623.927,77.8577 935.166,-39.1683 935.166,-333.383 C935.166,-479.594 602.545,-508.813 400.802,-536.187 C199.06,-563.562 128.196,-589.092 -18.9119,-589.092 Z " fill="#f8cbd3" fill-opacity="1.00" />			<path d="M205.3,557.004 C375.837,557.004 514.528,611.846 514.528,441.308 L514.528,280.042 C514.528,109.505 375.837,126.209 205.3,126.209 L-189.197,126.209 C-346.05,162.154 -498.424,33.3871 -498.424,441.308 L-498.424,441.308 C-498.424,611.846 -359.734,557.004 -189.197,557.004 L205.3,557.004 Z " fill="#662631" fill-opacity="1.00" />			<path d="M950.904,-356.046 C954.226,-354.771 939.082,-385.373 641.41,-387.272 C343.738,-389.171 272.974,-351.501 -1.29965,-356.046 C-275.574,-360.591 -456.351,-411.892 -619.754,-418.464 C-783.158,-425.036 -929.187,-386.879 -931.218,-387.238 L-931.409,-387.272 C-931.409,-387.272 -859.134,-90.8244 -859.134,-18.6917 C-859.134,-18.6917 -699.261,215.116 -484.802,307.261 C-270.344,399.406 89.6763,362.885 89.6763,362.885 C287.476,330.576 269.977,356.465 522.737,280.091 C775.498,203.717 877.329,76.0529 877.329,-18.6917 C877.329,-90.3846 977.184,-293.782 950.904,-356.046 Z " fill="#8f4d58" fill-opacity="1.00" />			<path d="M804.503,12.5509 L853.449,-57.0979 L789.648,78.6024 L822.355,-352.238 L750.08,-237.889 L802.087,-293.986 L804.503,12.5509 Z " fill="#0e0e0e" fill-opacity="1.00" />			<path d="M-645.619,86.0984 L-582.218,-4.6232 L-664.71,172.027 L-623.647,-388.25 L-717.228,-239.332 L-649.801,-312.444 L-645.619,86.0984 Z " fill="#0e0e0e" fill-opacity="1.00" />			<path d="M177.43,240.578 L247.939,121.265 L161.787,349.682 L159.64,-353.756 L56.9981,-158.905 L134.213,-256.616 L177.43,240.578 Z " fill="#0e0e0e" fill-opacity="1.00" />		</g>	</svg>