<?xml version="1.0" standalone="no"?>
<!DOCTYPE svg PUBLIC "-//W3C//DTD SVG 20010904//EN"
 "http://www.w3.org/TR/2001/REC-SVG-20010904/DTD/svg10.dtd">
<svg version="1.0" xmlns="http://www.w3.org/2000/svg"
 width="2048.000000pt" height="1373.000000pt" viewBox="0 0 2048.000000 1373.000000"
 preserveAspectRatio="xMidYMid meet">
<metadata>
Created by potrace 1.15, written by Peter Selinger 2001-2017
</metadata>
<g transform="translate(0.000000,1373.000000) scale(0.100000,-0.100000)"
fill="#000000" stroke="none">
<path d="M7406 12299 c-41 -12 -85 -57 -96 -99 -13 -49 -13 -6652 0 -6702 13
-48 66 -93 126 -107 36 -8 1179 -10 4296 -8 l4247 2 27 21 c15 11 37 33 48 48
l21 27 3 3322 c1 1827 0 3341 -3 3365 -9 59 -53 108 -116 126 -43 13 -591 15
-4287 14 -2330 0 -4250 -4 -4266 -9z m8371 -292 c5 -6 5 -6318 0 -6324 -6 -5
-8168 -5 -8174 0 -3 3 -6 5184 -3 6229 l0 97 43 3 c65 5 8129 -1 8134 -5z"/>
<path d="M7712 11898 c-17 -17 -17 -6099 0 -6116 17 -17 7919 -17 7936 0 9 9
12 701 12 3053 0 2934 -1 3042 -18 3058 -17 16 -307 17 -3968 17 -3059 0
-3953 -3 -3962 -12z m7848 -3058 l0 -2970 -3880 0 -3880 0 0 2970 0 2970 3880
0 3880 0 0 -2970z"/>
<path d="M13661 11423 c-29 -6 -27 -15 27 -178 51 -154 76 -281 67 -347 l-7
-50 28 5 c16 3 51 9 78 12 l49 7 -8 126 c-3 70 -11 147 -16 172 -19 96 -38
177 -50 218 l-14 42 -65 -1 c-36 -1 -76 -4 -89 -6z"/>
<path d="M14587 11390 c-25 -20 -81 -125 -136 -255 -24 -59 -69 -261 -59 -270
2 -2 35 -12 74 -24 39 -11 91 -32 116 -45 l45 -24 -9 41 c-5 23 -7 70 -4 103
21 216 172 374 361 379 l70 3 3 30 c3 30 2 30 -50 35 -29 2 -120 14 -203 26
-183 26 -177 26 -208 1z"/>
<path d="M13380 11390 c-246 -22 -301 -30 -316 -45 -25 -25 -10 -42 43 -47 56
-6 141 -53 191 -107 18 -20 49 -69 69 -109 31 -62 37 -86 41 -155 2 -45 -1
-101 -6 -125 -9 -39 -8 -43 6 -36 15 6 207 54 281 70 22 5 23 8 18 64 -3 32
-1 60 4 62 15 5 -27 195 -70 318 l-40 115 -68 1 c-38 1 -106 -2 -153 -6z"/>
<path d="M11267 11254 c-3 -4 -43 -12 -89 -18 -59 -9 -83 -16 -83 -26 0 -8 15
-17 33 -21 19 -4 39 -12 45 -18 9 -9 13 -123 15 -399 2 -213 1 -396 -2 -408
-6 -23 -44 -44 -81 -44 -16 0 -25 -6 -25 -15 0 -13 24 -15 155 -15 125 0 155
3 155 14 0 8 -16 16 -40 20 -31 5 -43 12 -50 32 -6 15 -10 205 -10 465 0 241
-4 439 -8 439 -5 0 -11 -3 -15 -6z"/>
<path d="M7980 11226 c0 -8 16 -15 42 -19 27 -4 51 -15 69 -34 17 -17 70 -127
141 -293 63 -146 148 -343 189 -438 69 -160 76 -172 99 -170 22 3 39 39 195
409 94 223 183 426 198 452 19 32 39 51 67 63 22 10 40 24 40 31 0 10 -32 13
-145 13 -116 0 -145 -3 -145 -14 0 -8 15 -16 38 -20 43 -6 67 -28 77 -67 8
-31 -22 -114 -168 -461 -99 -237 -104 -247 -116 -220 -105 229 -291 676 -291
699 0 35 30 53 85 53 24 0 35 5 35 15 0 13 -29 15 -205 15 -167 0 -205 -3
-205 -14z"/>
<path d="M9110 10878 c-82 -22 -167 -111 -191 -201 -18 -66 -13 -179 9 -230
66 -150 237 -219 378 -153 71 33 145 126 100 126 -8 0 -22 -13 -32 -29 -9 -15
-35 -40 -57 -55 -56 -35 -148 -37 -198 -3 -63 42 -99 144 -99 280 l0 57 200 0
c194 0 200 1 200 20 0 36 -30 94 -68 133 -56 58 -152 80 -242 55z m126 -34
c41 -20 64 -59 64 -109 l0 -35 -135 0 c-153 0 -152 -1 -114 78 16 33 32 49 63
63 51 23 78 24 122 3z"/>
<path d="M9640 10879 c-53 -21 -100 -91 -100 -149 0 -76 44 -124 183 -197 86
-45 117 -81 117 -135 0 -31 -7 -46 -30 -70 -29 -28 -35 -30 -86 -26 -45 4 -61
10 -89 38 -19 18 -42 53 -52 77 -30 72 -43 56 -43 -52 0 -102 13 -123 39 -64
12 29 14 29 35 14 46 -34 90 -47 144 -43 87 8 143 63 149 150 5 60 -12 111
-49 145 -13 13 -68 47 -123 76 -79 42 -102 60 -117 89 -17 33 -18 39 -4 71 10
26 24 38 50 47 69 22 131 -19 171 -113 25 -60 35 -44 35 53 0 50 -4 90 -9 90
-5 0 -16 -12 -26 -26 l-17 -26 -21 20 c-42 39 -105 52 -157 31z"/>
<path d="M10120 10879 c-53 -21 -100 -91 -100 -149 0 -76 44 -124 183 -197 86
-45 117 -81 117 -135 0 -31 -7 -46 -30 -70 -29 -28 -35 -30 -86 -26 -45 4 -61
10 -89 38 -19 18 -42 53 -52 77 -30 72 -43 56 -43 -52 0 -102 13 -123 39 -64
12 29 14 29 35 14 46 -34 90 -47 144 -43 87 8 143 63 149 150 5 60 -12 111
-49 145 -13 13 -68 47 -123 76 -79 42 -102 60 -117 89 -17 33 -18 39 -4 71 10
26 24 38 50 47 69 22 131 -19 171 -113 25 -60 35 -44 35 53 0 50 -4 90 -9 90
-5 0 -16 -12 -26 -26 l-17 -26 -21 20 c-42 39 -105 52 -157 31z"/>
<path d="M10700 10878 c-82 -22 -167 -111 -191 -201 -18 -66 -13 -179 9 -230
66 -150 237 -219 378 -153 71 33 145 126 100 126 -8 0 -22 -13 -32 -29 -9 -15
-35 -40 -57 -55 -56 -35 -148 -37 -198 -3 -63 42 -99 144 -99 280 l0 57 200 0
c194 0 200 1 200 20 0 36 -30 94 -68 133 -56 58 -152 80 -242 55z m126 -34
c41 -20 64 -59 64 -109 l0 -35 -135 0 c-153 0 -152 -1 -114 78 16 33 32 49 63
63 51 23 78 24 122 3z"/>
<path d="M11580 10879 c-53 -21 -100 -91 -100 -149 0 -76 44 -124 183 -197 86
-45 117 -81 117 -135 0 -31 -7 -46 -30 -70 -29 -28 -35 -30 -86 -26 -45 4 -61
10 -89 38 -19 18 -42 53 -52 77 -30 72 -43 56 -43 -52 0 -102 13 -123 39 -64
12 29 14 29 35 14 46 -34 90 -47 144 -43 87 8 143 63 149 150 5 60 -12 111
-49 145 -13 13 -68 47 -123 76 -79 42 -102 60 -117 89 -17 33 -18 39 -4 71 10
26 24 38 50 47 69 22 131 -19 171 -113 25 -60 35 -44 35 53 0 50 -4 90 -9 90
-5 0 -16 -12 -26 -26 l-17 -26 -21 20 c-42 39 -105 52 -157 31z"/>
<path d="M13792 10819 c-53 -10 -62 -16 -62 -37 0 -36 -124 -252 -247 -434
-93 -136 -141 -311 -123 -449 18 -145 26 -160 280 -534 26 -38 69 -94 94 -123
52 -61 76 -127 76 -213 0 -58 0 -58 33 -64 18 -4 53 -5 77 -3 l45 3 3 96 c2
88 1 98 -23 133 -15 22 -33 57 -42 80 -9 22 -25 49 -35 59 -10 10 -18 22 -18
26 0 5 -23 33 -51 62 -28 29 -66 76 -85 104 -20 27 -53 75 -75 105 -22 30 -56
86 -75 125 -30 60 -35 82 -41 170 -5 89 -3 109 16 165 24 68 129 275 165 325
31 42 116 192 116 204 0 5 3 11 8 13 8 3 41 115 49 166 6 36 -1 38 -85 21z"/>
<path d="M14390 10803 c0 -30 26 -106 52 -148 25 -43 59 -91 156 -224 74 -99
132 -216 158 -316 26 -98 27 -383 2 -435 -9 -19 -25 -55 -35 -80 -24 -60 -82
-159 -142 -245 -28 -38 -64 -94 -81 -122 -34 -57 -75 -183 -59 -183 14 0 146
66 194 97 37 24 90 81 142 156 13 18 27 37 33 44 5 7 10 19 10 27 0 8 13 37
28 63 42 71 88 196 107 292 23 114 16 331 -14 446 -28 108 -154 356 -207 409
-17 17 -44 53 -59 80 -39 67 -137 126 -252 151 -28 5 -33 4 -33 -12z"/>
<path d="M13580 10774 c-162 -37 -199 -51 -220 -88 -29 -49 -73 -102 -101
-121 -14 -10 -31 -32 -38 -49 -15 -35 -70 -125 -87 -143 -14 -14 -57 -144 -78
-233 -71 -298 18 -644 223 -875 9 -11 36 -45 59 -76 77 -106 156 -154 314
-189 51 -12 98 -23 104 -25 14 -4 17 104 3 121 -6 7 -8 18 -4 24 10 15 -14 56
-86 147 -64 81 -204 279 -225 318 -6 11 -25 43 -42 71 -62 100 -74 138 -79
263 -4 89 -2 132 11 181 31 124 70 211 131 290 19 25 47 68 61 95 15 28 40 69
56 93 16 23 38 63 49 87 11 25 24 45 29 45 10 0 33 66 28 79 -2 5 -50 -2 -108
-15z"/>
<path d="M11625 9673 c-46 -9 -49 -13 -27 -29 20 -14 22 -24 22 -108 0 -86 -2
-95 -22 -109 -22 -15 -20 -16 45 -16 43 -1 66 3 62 9 -3 6 -12 10 -19 10 -25
0 -37 142 -15 182 6 11 26 26 46 34 31 13 38 13 59 -1 23 -14 24 -21 24 -109
0 -86 -2 -95 -22 -109 -22 -15 -20 -16 45 -16 43 -1 66 3 62 9 -3 6 -12 10
-19 10 -19 0 -26 33 -26 126 0 67 -3 84 -19 98 -28 26 -85 24 -120 -2 -37 -27
-41 -27 -41 -3 0 23 -8 29 -35 24z"/>
<path d="M14598 9082 c-15 -10 -58 -31 -96 -47 l-70 -29 -5 -46 c-11 -89 45
-290 97 -350 21 -24 62 -102 70 -132 8 -33 12 -34 181 -12 66 8 141 18 168 21
37 4 47 9 47 24 0 13 -10 20 -37 24 -94 16 -185 64 -238 127 -34 41 -83 144
-96 204 -12 58 -4 169 16 217 9 22 -3 22 -37 -1z"/>
<path d="M13408 8981 c12 -206 -87 -365 -269 -431 -29 -11 -64 -20 -76 -20
-16 0 -23 -6 -23 -20 0 -16 7 -20 35 -20 19 0 35 -4 35 -9 0 -14 216 -24 349
-16 l121 8 55 102 c54 101 107 244 120 320 l6 40 -113 27 c-65 16 -141 42
-179 61 l-66 35 5 -77z"/>
<path d="M13776 8828 c-15 -57 -47 -145 -72 -197 -24 -51 -42 -96 -40 -100 3
-4 1 -13 -4 -21 -5 -8 -5 -22 1 -32 8 -15 22 -18 79 -18 l70 0 31 68 c37 79
79 206 79 236 0 12 8 52 19 88 10 37 16 70 13 73 -3 3 -38 5 -77 5 l-72 0 -27
-102z"/>
<path d="M10830 8860 c-212 -46 -379 -143 -500 -292 -59 -74 -149 -251 -180
-358 -48 -163 -63 -359 -39 -526 48 -343 269 -618 584 -723 117 -39 201 -52
340 -52 240 0 441 78 593 230 l51 51 28 -47 c15 -26 35 -70 45 -98 14 -44 20
-50 47 -53 l31 -3 0 335 0 336 -30 0 c-26 0 -30 -4 -36 -37 -22 -131 -78 -276
-142 -370 -114 -168 -307 -263 -531 -263 -182 0 -300 49 -432 180 -71 71 -93
101 -132 180 -82 165 -114 352 -104 595 10 239 43 380 126 539 76 148 200 255
348 302 80 25 217 29 313 10 109 -22 247 -88 322 -155 101 -92 175 -234 218
-423 22 -96 23 -98 52 -98 l29 0 -6 293 c-3 160 -8 325 -11 365 -6 71 -6 72
-34 72 -25 0 -28 -4 -35 -45 -6 -42 -25 -104 -54 -178 l-11 -28 -54 53 c-99
96 -266 181 -418 212 -103 21 -270 20 -378 -4z"/>
<path d="M12340 8849 c-41 -10 -118 -22 -170 -26 l-95 -8 -3 -32 c-3 -30 -1
-33 25 -33 46 0 98 -18 121 -43 39 -42 43 -119 40 -892 -3 -663 -5 -733 -20
-756 -20 -31 -55 -46 -130 -54 -56 -6 -58 -7 -58 -36 l0 -29 310 0 310 0 0 29
c0 29 -2 30 -57 36 -76 8 -111 23 -131 54 -16 23 -17 103 -20 918 l-3 893 -22
-1 c-12 -1 -56 -10 -97 -20z"/>
<path d="M13212 8129 c-149 -19 -262 -84 -324 -184 -23 -39 -24 -107 0 -128
42 -38 115 -29 146 17 8 12 23 54 35 92 33 112 88 146 231 147 101 0 173 -26
220 -79 39 -44 44 -69 45 -188 l0 -99 -150 -61 c-290 -120 -475 -232 -541
-329 -151 -220 51 -463 326 -393 78 20 206 79 299 140 l69 44 21 -58 c37 -100
117 -148 232 -137 104 9 166 59 195 154 20 67 18 83 -10 83 -19 0 -27 -8 -37
-37 -18 -57 -37 -81 -75 -93 -26 -9 -40 -8 -61 2 -55 26 -57 38 -64 473 -4
292 -10 410 -19 438 -54 152 -271 231 -538 196z m358 -716 l0 -228 -58 -43
c-31 -23 -94 -61 -139 -84 -137 -68 -234 -56 -288 37 -35 58 -36 150 -4 224
27 64 120 153 209 201 61 32 256 118 273 119 4 1 7 -101 7 -226z"/>
<path d="M14020 8061 c0 -28 3 -30 46 -37 63 -9 103 -47 152 -142 56 -108 452
-959 452 -972 0 -14 -96 -253 -124 -308 -30 -59 -42 -70 -143 -122 -107 -55
-153 -104 -153 -163 0 -107 128 -116 214 -15 53 62 89 141 396 883 186 449
303 720 327 755 37 53 62 69 136 84 22 5 27 12 27 36 l0 30 -200 0 -200 0 0
-30 c0 -16 2 -30 4 -30 30 0 114 -24 128 -37 33 -29 38 -13 -174 -521 -72
-172 -132 -311 -133 -310 -1 2 -82 174 -180 383 -116 247 -178 392 -179 414
-1 39 21 56 87 66 33 5 37 9 37 35 l0 30 -260 0 -260 0 0 -29z"/>
</g>
</svg>
