<?xml version="1.0" encoding="utf-8" ?>	<!-- Generator: Assembly 2.2 - http://assemblyapp.co -->	<svg version="1.1" xmlns="http://www.w3.org/2000/svg" xmlns:xlink="http://www.w3.org/1999/xlink" width="2048.00" height="1365.33" viewBox="0 0 2048.0 1365.3333333333335">		<g id="document" transform="matrix(1,0,0,1,1024.0,682.6666666666667)">			<path d="M-69.1133,44.2778 C-69.1133,47.3635 -68.0438,49.9934 -65.9048,52.1675 C-63.7659,54.3415 -61.1886,55.4285 -58.173,55.4285 C-55.1574,55.4285 -52.5976,54.3415 -50.4937,52.1675 C-48.3898,49.9934 -47.3379,47.3635 -47.3379,44.2778 C-47.3379,41.2622 -48.3898,38.6674 -50.4937,36.4934 C-52.5976,34.3193 -55.1574,33.2323 -58.173,33.2323 C-61.1886,33.2323 -63.7659,34.3193 -65.9048,36.4934 C-68.0438,38.6674 -69.1133,41.2622 -69.1133,44.2778 Z M-51.1249,88.2494 C-57.9977,90.704 -67.6756,92.5624 -80.1588,93.8248 L-80.1588,98.6638 L-77.3185,98.6638 C-73.3912,98.6638 -70.6386,98.9443 -69.0607,99.5053 C-67.4828,100.066 -66.2204,101.469 -65.2737,103.713 C-64.3269,105.957 -63.8535,112.129 -63.8535,122.227 L-63.8535,148.316 C-63.8535,157.924 -63.9762,163.727 -64.2217,165.726 C-64.4672,167.724 -65.3438,169.443 -66.8516,170.88 C-68.3594,172.318 -71.6029,173.037 -76.5821,173.037 L-80.1588,173.037 L-80.1588,177.876 L-33.7677,177.876 L-33.7677,173.037 L-35.9768,173.037 C-40.4651,173.037 -43.5859,172.406 -45.3392,171.143 C-47.0924,169.881 -48.1093,168.058 -48.3898,165.673 C-48.6703,163.289 -48.8106,157.503 -48.8106,148.316 L-48.8106,88.2494 L-51.1249,88.2494 Z M-1.20843e-14,88.2494 C-8.06497,90.6338 -15.9546,92.2468 -23.6689,93.0884 L-23.6689,97.9274 C-18.6196,97.9274 -15.1656,98.4709 -13.3072,99.5579 C-11.4488,100.645 -10.3267,102.258 -9.94095,104.397 C-9.55524,106.536 -9.36238,112.62 -9.36238,122.648 L-9.36238,148.316 C-9.36238,158.835 -9.5903,165.095 -10.0461,167.093 C-10.502,169.092 -11.6767,170.582 -13.5702,171.564 C-15.4637,172.546 -18.83,173.037 -23.6689,173.037 L-23.6689,177.876 L19.8819,177.876 L19.8819,173.037 C14.8325,173.037 11.3786,172.493 9.52017,171.406 C7.66172,170.319 6.53964,168.689 6.15392,166.515 C5.76821,164.341 5.57535,158.274 5.57535,148.316 L5.57535,113.181 C9.71303,107.079 14.1137,102.503 18.7774,99.4527 C23.441,96.4021 28.3326,94.8767 33.4521,94.8767 C37.9404,94.8767 41.6398,95.9988 44.5502,98.243 C47.4606,100.487 49.2489,103.064 49.9151,105.975 C50.5814,108.885 50.9145,113.742 50.9145,120.544 L50.9145,148.316 C50.9145,157.924 50.8093,163.709 50.5989,165.673 C50.3885,167.637 49.5119,169.355 47.969,170.828 C46.4262,172.3 43.1301,173.037 38.0807,173.037 L36.082,173.037 L36.082,177.876 L80.1588,177.876 L80.1588,173.037 C75.1795,173.037 71.7607,172.493 69.9022,171.406 C68.0438,170.319 66.9392,168.689 66.5886,166.515 C66.2379,164.341 66.0626,158.274 66.0626,148.316 L66.0626,121.386 C66.0626,113.391 65.4314,107.307 64.1691,103.135 C62.9068,98.9618 60.084,95.4378 55.7009,92.5624 C51.3178,89.6871 45.6898,88.2494 38.817,88.2494 C32.7859,88.2494 27.0001,89.7222 21.4598,92.6676 C15.9195,95.6131 10.6247,100.066 5.57535,106.027 C5.36496,98.5235 4.45327,92.5975 2.84027,88.2494 L-1.20843e-14,88.2494 Z " fill="#cd8384" fill-opacity="1.00" />			<path d="M-482.126,-327.013 L-455.694,-388.88 C-448.917,-404.952 -440.881,-417.151 -431.586,-425.477 C-422.292,-433.803 -411.545,-438.16 -399.346,-438.548 L-399.346,-451.908 L-519.594,-451.908 L-519.594,-438.548 C-488.031,-437.773 -472.25,-426.252 -472.25,-403.983 C-472.25,-392.946 -479.899,-369.226 -495.196,-332.822 L-586.108,-115.272 L-699.386,-376.681 C-708.486,-397.4 -713.037,-410.567 -713.037,-416.183 C-713.037,-424.896 -709.406,-430.802 -702.145,-433.9 C-694.883,-436.998 -680.7,-438.548 -659.593,-438.548 L-659.593,-451.908 L-829.219,-451.908 L-829.219,-438.548 C-810.63,-438.16 -797.172,-434.772 -788.846,-428.382 C-780.519,-421.992 -772.58,-409.502 -765.028,-390.913 C-759.606,-377.165 -755.637,-367.483 -753.12,-361.868 L-617.187,-48.7575 L-599.179,-48.7575 L-482.126,-327.013 Z M-221.259,-215.478 C-222.227,-237.553 -231.231,-258.078 -248.271,-277.055 C-265.311,-296.031 -289.419,-305.519 -320.594,-305.519 C-353.706,-305.519 -381.299,-293.078 -403.374,-268.196 C-425.448,-243.314 -436.485,-212.09 -436.485,-174.524 C-436.485,-147.996 -430.773,-125.438 -419.349,-106.848 C-407.924,-88.2593 -393.256,-73.8818 -375.345,-63.7159 C-357.433,-53.55 -338.409,-48.4671 -318.27,-48.4671 C-296.583,-48.4671 -276.542,-54.0341 -258.146,-65.1682 C-239.751,-76.3023 -227.455,-91.7448 -221.259,-111.496 L-235.2,-111.496 C-249.917,-79.933 -274.896,-64.1516 -310.138,-64.1516 C-336.085,-64.1516 -355.594,-74.6564 -368.664,-95.6659 C-381.735,-116.675 -388.27,-148.093 -388.27,-189.918 C-388.27,-195.534 -387.883,-204.054 -387.108,-215.478 L-221.259,-215.478 Z M-385.946,-227.097 C-379.169,-270.858 -358.16,-292.739 -322.918,-292.739 C-308.395,-292.739 -296.147,-288.044 -286.175,-278.652 C-276.203,-269.261 -271.217,-256.045 -271.217,-239.005 C-271.217,-235.52 -271.507,-231.55 -272.088,-227.097 L-385.946,-227.097 Z M-153.254,-50.5002 C-149.962,-61.3439 -145.702,-69.6702 -140.474,-75.4793 C-123.434,-57.4711 -103.973,-48.4671 -82.0921,-48.4671 C-61.373,-48.4671 -44.1878,-54.9539 -30.5365,-67.9275 C-16.8851,-80.9011 -10.0594,-97.7475 -10.0594,-118.467 C-10.0594,-131.634 -13.7385,-145.382 -21.0967,-159.711 C-28.4549,-173.847 -48.593,-188.369 -81.5112,-203.279 C-103.392,-213.155 -118.205,-221.965 -125.951,-229.711 C-133.89,-237.263 -137.859,-246.267 -137.859,-256.723 C-137.859,-266.211 -134.277,-274.538 -127.113,-281.702 C-119.948,-288.867 -110.557,-292.449 -98.9385,-292.449 C-83.8349,-292.449 -70.716,-286.107 -59.5819,-273.424 C-48.4478,-260.741 -40.9444,-245.589 -37.0717,-227.968 L-26.3249,-227.968 L-26.3249,-301.453 L-37.0717,-301.453 C-41.719,-290.222 -45.4949,-283.154 -48.3994,-280.25 C-61.954,-297.096 -79.0908,-305.519 -99.8099,-305.519 C-120.142,-305.519 -135.923,-298.403 -147.154,-284.171 C-158.385,-269.939 -164,-254.98 -164,-239.296 C-164,-222.837 -158.772,-208.992 -148.316,-197.761 C-137.859,-186.336 -120.626,-174.718 -96.6149,-162.906 C-73.7658,-151.675 -58.3717,-142.09 -50.4326,-134.151 C-42.6871,-126.212 -38.8144,-116.046 -38.8144,-103.653 C-38.8144,-93.0034 -42.4451,-83.2248 -49.7065,-74.3175 C-56.9678,-65.4102 -67.9567,-60.9566 -82.6731,-60.9566 C-116.559,-60.9566 -140.086,-83.5152 -153.254,-128.633 L-164.581,-128.633 L-164.581,-50.5002 L-153.254,-50.5002 Z M55.0411,-50.5002 C58.333,-61.3439 62.593,-69.6702 67.8211,-75.4793 C84.8611,-57.4711 104.322,-48.4671 126.203,-48.4671 C146.922,-48.4671 164.107,-54.9539 177.758,-67.9275 C191.41,-80.9011 198.235,-97.7475 198.235,-118.467 C198.235,-131.634 194.556,-145.382 187.198,-159.711 C179.84,-173.847 159.702,-188.369 126.783,-203.279 C104.903,-213.155 90.0893,-221.965 82.3439,-229.711 C74.4048,-237.263 70.4352,-246.267 70.4352,-256.723 C70.4352,-266.211 74.0175,-274.538 81.1821,-281.702 C88.3466,-288.867 97.738,-292.449 109.356,-292.449 C124.46,-292.449 137.579,-286.107 148.713,-273.424 C159.847,-260.741 167.35,-245.589 171.223,-227.968 L181.97,-227.968 L181.97,-301.453 L171.223,-301.453 C166.576,-290.222 162.8,-283.154 159.895,-280.25 C146.341,-297.096 129.204,-305.519 108.485,-305.519 C88.153,-305.519 72.3716,-298.403 61.1407,-284.171 C49.9098,-269.939 44.2943,-254.98 44.2943,-239.296 C44.2943,-222.837 49.5225,-208.992 59.9789,-197.761 C70.4352,-186.336 87.6689,-174.718 111.68,-162.906 C134.529,-151.675 149.923,-142.09 157.862,-134.151 C165.608,-126.212 169.48,-116.046 169.48,-103.653 C169.48,-93.0034 165.85,-83.2248 158.588,-74.3175 C151.327,-65.4102 140.338,-60.9566 125.622,-60.9566 C91.7352,-60.9566 68.2084,-83.5152 55.0411,-128.633 L43.7134,-128.633 L43.7134,-50.5002 L55.0411,-50.5002 Z M465.492,-215.478 C464.524,-237.553 455.52,-258.078 438.48,-277.055 C421.44,-296.031 397.332,-305.519 366.157,-305.519 C333.045,-305.519 305.452,-293.078 283.377,-268.196 C261.303,-243.314 250.265,-212.09 250.265,-174.524 C250.265,-147.996 255.978,-125.438 267.402,-106.848 C278.827,-88.2593 293.495,-73.8818 311.406,-63.7159 C329.317,-53.55 348.342,-48.4671 368.48,-48.4671 C390.168,-48.4671 410.209,-54.0341 428.604,-65.1682 C447,-76.3023 459.296,-91.7448 465.492,-111.496 L451.55,-111.496 C436.834,-79.933 411.855,-64.1516 376.613,-64.1516 C350.666,-64.1516 331.157,-74.6564 318.086,-95.6659 C305.016,-116.675 298.481,-148.093 298.481,-189.918 C298.481,-195.534 298.868,-204.054 299.643,-215.478 L465.492,-215.478 Z M300.804,-227.097 C307.582,-270.858 328.591,-292.739 363.833,-292.739 C378.356,-292.739 390.603,-288.044 400.576,-278.652 C410.548,-269.261 415.534,-256.045 415.534,-239.005 C415.534,-235.52 415.244,-231.55 414.663,-227.097 L300.804,-227.097 Z M582.875,-457.427 C576.872,-454.716 565.883,-452.005 549.908,-449.294 C533.933,-446.583 520.04,-445.228 508.228,-445.228 L508.228,-431.867 C525.461,-431.867 536.305,-428.624 540.759,-422.137 C545.212,-415.65 547.439,-399.917 547.439,-374.938 L547.439,-139.67 C547.439,-112.173 546.955,-95.5207 545.987,-89.7116 C545.019,-83.9025 542.066,-79.4005 537.128,-76.2055 C532.19,-73.0105 523.912,-71.413 512.294,-71.413 L504.161,-71.413 L504.161,-58.0521 L631.38,-58.0521 L631.38,-71.413 L624.41,-71.413 C612.017,-71.413 603.4,-73.1557 598.559,-76.6411 C593.718,-80.1266 590.959,-85.1611 590.281,-91.7448 C589.603,-98.3284 589.265,-114.303 589.265,-139.67 L589.265,-457.427 L582.875,-457.427 Z M686.025,-50.5002 C689.316,-61.3439 693.576,-69.6702 698.805,-75.4793 C715.845,-57.4711 735.305,-48.4671 757.186,-48.4671 C777.905,-48.4671 795.09,-54.9539 808.742,-67.9275 C822.393,-80.9011 829.219,-97.7475 829.219,-118.467 C829.219,-131.634 825.54,-145.382 818.181,-159.711 C810.823,-173.847 790.685,-188.369 757.767,-203.279 C735.886,-213.155 721.073,-221.965 713.327,-229.711 C705.388,-237.263 701.419,-246.267 701.419,-256.723 C701.419,-266.211 705.001,-274.538 712.166,-281.702 C719.33,-288.867 728.721,-292.449 740.34,-292.449 C755.443,-292.449 768.562,-286.107 779.696,-273.424 C790.83,-260.741 798.334,-245.589 802.206,-227.968 L812.953,-227.968 L812.953,-301.453 L802.206,-301.453 C797.559,-290.222 793.783,-283.154 790.879,-280.25 C777.324,-297.096 760.187,-305.519 739.468,-305.519 C719.136,-305.519 703.355,-298.403 692.124,-284.171 C680.893,-269.939 675.278,-254.98 675.278,-239.296 C675.278,-222.837 680.506,-208.992 690.962,-197.761 C701.419,-186.336 718.652,-174.718 742.663,-162.906 C765.512,-151.675 780.906,-142.09 788.846,-134.151 C796.591,-126.212 800.464,-116.046 800.464,-103.653 C800.464,-93.0034 796.833,-83.2248 789.572,-74.3175 C782.31,-65.4102 771.321,-60.9566 756.605,-60.9566 C722.719,-60.9566 699.192,-83.5152 686.025,-128.633 L674.697,-128.633 L674.697,-50.5002 L686.025,-50.5002 Z " fill="#161612" fill-opacity="1.00" />			<path d="M-407.873,331.273 C-410.2,354.154 -417.811,377.86 -430.706,402.39 C-443.601,426.92 -461.102,444.323 -483.208,454.601 C-505.313,464.878 -526.935,470.017 -548.071,470.017 C-587.629,470.017 -620.691,454.261 -647.257,422.751 C-673.823,391.24 -687.106,345.913 -687.106,286.77 C-687.106,224.331 -674.938,176.337 -650.602,142.791 C-626.266,109.244 -593.446,92.4705 -552.143,92.4705 C-518.403,92.4705 -488.104,102.845 -461.247,123.593 C-434.39,144.342 -416.599,181.282 -407.873,234.414 L-395.365,234.414 L-398.856,84.9079 L-411.654,84.9079 C-413.399,102.554 -418.441,119.618 -426.779,136.101 C-438.608,121.363 -456.496,107.935 -480.444,95.8155 C-504.392,83.696 -531.104,77.6362 -560.578,77.6362 C-596.258,77.6362 -629.029,85.9744 -658.892,102.651 C-688.754,119.327 -712.023,144.875 -728.7,179.295 C-745.376,213.714 -753.715,250.412 -753.715,289.388 C-753.715,348.725 -735.632,396.427 -699.468,432.495 C-663.303,468.562 -616.716,486.596 -559.706,486.596 C-505.798,486.596 -461.489,467.011 -426.779,427.841 C-417.665,439.864 -411.363,453.728 -407.873,469.435 L-395.365,469.435 L-395.365,331.273 L-407.873,331.273 Z M-14.9105,363.268 C-23.6365,394.488 -33.2836,417.273 -43.8518,431.622 C-54.42,445.972 -65.57,455.28 -77.3016,459.546 C-89.0333,463.812 -107.019,465.945 -131.258,465.945 L-161.217,465.945 C-183.905,465.945 -198.69,463.957 -205.574,459.982 C-212.458,456.007 -216.676,450.432 -218.227,443.257 C-219.778,436.082 -220.554,418.242 -220.554,389.737 L-220.554,183.221 C-220.554,150.45 -219.536,129.702 -217.5,120.976 C-215.464,112.249 -211.44,106.287 -205.429,103.087 C-199.418,99.8876 -186.716,98.2878 -167.325,98.2878 L-149.873,98.2878 L-149.873,84.9079 L-339.228,84.9079 L-339.228,98.2878 L-330.502,98.2878 C-310.529,98.2878 -297.585,100.033 -291.671,103.523 C-285.757,107.014 -281.879,113.316 -280.036,122.43 C-278.194,131.544 -277.273,151.808 -277.273,183.221 L-277.273,376.648 C-277.273,409.613 -278.194,430.604 -280.036,439.621 C-281.879,448.638 -286.048,455.28 -292.544,459.546 C-299.04,463.812 -310.723,465.945 -327.593,465.945 L-339.228,465.945 L-339.228,479.325 L-4.14839,479.325 L-1.23971,363.268 L-14.9105,363.268 Z M291.082,406.899 C300.002,428.035 304.462,440.736 304.462,445.002 C304.462,453.34 301.117,458.915 294.427,461.727 C287.737,464.539 274.891,465.945 255.887,465.945 L255.887,479.325 L410.92,479.325 L410.92,465.945 C397.152,464.587 386.826,461.242 379.942,455.91 C373.059,450.577 367.581,443.257 363.508,433.949 L345.475,392.646 L213.712,79.3814 L202.368,79.3814 L87.7658,353.088 C79.4276,372.673 74.7737,383.92 73.8042,386.829 C61.7816,417.661 51.5043,437.876 42.9722,447.475 C34.4401,457.073 21.448,463.23 3.9959,465.945 L3.9959,479.325 L121.216,479.325 L121.216,465.945 C108.611,465.945 98.2855,462.891 90.2382,456.782 C82.1908,450.674 78.1672,441.706 78.1672,429.877 C78.1672,418.824 85.7297,395.167 100.855,358.905 L111.035,333.891 L260.832,333.891 L291.082,406.899 Z M116.562,320.802 L186.079,152.68 L255.887,320.802 L116.562,320.802 Z M537.156,151.226 C527.267,134.937 522.322,124.078 522.322,118.649 C522.322,105.075 537.253,98.2878 567.116,98.2878 L567.116,84.9079 L407.139,84.9079 L407.139,98.2878 C424.203,98.6757 436.031,102.021 442.624,108.323 C449.217,114.625 462.5,134.065 482.473,166.642 L580.787,328.073 L580.787,376.648 C580.787,409.613 579.914,430.604 578.169,439.621 C576.424,448.638 572.303,455.28 565.807,459.546 C559.311,463.812 547.628,465.945 530.757,465.945 L524.358,465.945 L524.358,479.325 L692.48,479.325 L692.48,465.945 C672.895,465.945 659.757,464.054 653.067,460.273 C646.377,456.491 642.014,449.995 639.978,440.785 C637.942,431.574 636.924,410.195 636.924,376.648 L636.924,324.292 L725.348,176.822 C742.412,148.511 756.422,128.974 767.378,118.212 C778.334,107.45 792.732,100.809 810.572,98.2878 L810.572,84.9079 L681.718,84.9079 L681.718,98.2878 C699.17,98.2878 711.289,101.681 718.076,108.468 C724.863,115.255 728.257,122.721 728.257,130.865 C728.257,139.785 721.857,154.91 709.059,176.24 L631.398,306.84 L537.156,151.226 Z " fill="#880000" fill-opacity="1.00" />			<path d="M-941.853,599.211 L927.992,599.211 L927.992,-599.211 L-941.853,-599.211 L-941.853,599.211 Z " fill="none" stroke-width="13.65" stroke="#161612" stroke-linecap="square" stroke-linejoin="miter" />		</g>	</svg>