<?xml version="1.0" encoding="utf-8" ?>	<!-- Generator: Assembly 2.2 - http://assemblyapp.co -->	<svg version="1.1" xmlns="http://www.w3.org/2000/svg" xmlns:xlink="http://www.w3.org/1999/xlink" width="2048.00" height="2048.00" viewBox="0 0 2048.0 2048.0">		<g id="document" transform="matrix(1,0,0,1,1024.0,1024.0)">			<path d="M179.829,782.28 L-208.125,782.28 C-208.125,782.28 -208.125,846.318 -208.125,907.378 C-208.125,968.438 -149.671,944.982 -88.6113,944.982 L58.4537,944.982 C119.514,944.982 179.829,968.438 179.829,907.378 C179.829,846.691 179.829,782.28 179.829,782.28 Z " fill="#550809" fill-opacity="1.00" />			<path d="M10.3665,-733.999 C133.509,-733.999 383.947,-842.422 383.947,-842.422 C383.947,-842.422 110.511,-909.993 -12.6316,-909.993 C-135.774,-909.993 -356.132,-842.422 -356.132,-842.422 C-356.132,-842.422 -112.776,-733.999 10.3665,-733.999 Z " fill="#c59191" fill-opacity="1.00" />			<path d="M-32.9787,868.74 C108.572,873.453 181.099,840.915 181.099,840.915 C181.099,840.915 507.412,487.243 512.125,345.692 C516.837,204.141 492.245,116.665 385.995,39.7895 C322.809,-5.92745 280.768,-36.3451 226.823,-75.3759 C183.239,-106.91 113.867,-171.341 87.3284,-256.792 C83.6473,-292.305 93.7867,-338.796 108.549,-381.861 C123.311,-424.926 185.461,-388.104 298.541,-525.381 C333.944,-568.359 360.922,-657.295 367.722,-696.491 C367.722,-795.721 385.995,-843.01 385.995,-843.01 C385.995,-843.01 264.747,-804.361 165.904,-791.478 C-49.4072,-791.478 -29.6375,-778.595 -113.177,-791.478 C-196.716,-804.361 -359.201,-843.01 -359.201,-843.01 C-313.817,-746.993 -374.215,-680.96 -324.393,-578.432 C-274.572,-475.905 -159.395,-429.193 -141.232,-381.861 C-111.378,-304.062 -113.177,-282.277 -113.177,-256.792 C-113.177,-166.616 -175.268,-99.3136 -195.126,-75.3759 C-237.637,-24.1288 -313.539,7.73894 -359.201,39.7895 C-466.543,115.133 -505.443,204.141 -510.156,345.692 C-514.869,487.243 -201.923,840.915 -201.923,840.915 C-201.923,840.915 -174.53,864.027 -32.9787,868.74 Z " fill="#800102" fill-opacity="1.00" />		</g>	</svg>